<svg xmlns="http://www.w3.org/2000/svg" width="19.259" height="20" viewBox="0 0 19.259 20">
  <g id="calendar" transform="translate(-5.988)">
    <g id="Group_6609" data-name="Group 6609" transform="translate(5.988 0)">
      <path id="Path_74324" data-name="Path 74324" d="M8.64,20H22.6a2.654,2.654,0,0,0,2.652-2.652V4.133A2.654,2.654,0,0,0,22.6,1.481H21.544V.741a.741.741,0,0,0-1.482,0v.741H11.173V.741a.741.741,0,0,0-1.482,0v.741H8.64A2.654,2.654,0,0,0,5.988,4.133V17.348A2.654,2.654,0,0,0,8.64,20ZM7.469,4.133a1.173,1.173,0,0,1,1.17-1.17H9.692V3.7a.741.741,0,0,0,1.481,0V2.963h8.889V3.7a.741.741,0,0,0,1.481,0V2.963H22.6a1.173,1.173,0,0,1,1.17,1.17V17.348a1.173,1.173,0,0,1-1.17,1.17H8.64a1.173,1.173,0,0,1-1.17-1.17Z" transform="translate(-5.988 0)" fill="#686868"/>
      <circle id="Ellipse_1071" data-name="Ellipse 1071" cx="0.926" cy="0.926" r="0.926" transform="translate(4.444 6.667)" fill="#686868"/>
      <circle id="Ellipse_1072" data-name="Ellipse 1072" cx="0.926" cy="0.926" r="0.926" transform="translate(8.519 6.667)" fill="#686868"/>
      <circle id="Ellipse_1073" data-name="Ellipse 1073" cx="0.926" cy="0.926" r="0.926" transform="translate(12.593 6.667)" fill="#686868"/>
      <circle id="Ellipse_1074" data-name="Ellipse 1074" cx="0.926" cy="0.926" r="0.926" transform="translate(4.444 10.37)" fill="#686868"/>
      <circle id="Ellipse_1075" data-name="Ellipse 1075" cx="0.926" cy="0.926" r="0.926" transform="translate(8.519 10.37)" fill="#686868"/>
      <circle id="Ellipse_1076" data-name="Ellipse 1076" cx="0.926" cy="0.926" r="0.926" transform="translate(12.593 10.37)" fill="#686868"/>
      <circle id="Ellipse_1077" data-name="Ellipse 1077" cx="0.926" cy="0.926" r="0.926" transform="translate(4.444 14.074)" fill="#686868"/>
      <circle id="Ellipse_1078" data-name="Ellipse 1078" cx="0.926" cy="0.926" r="0.926" transform="translate(8.519 14.074)" fill="#686868"/>
      <circle id="Ellipse_1079" data-name="Ellipse 1079" cx="0.926" cy="0.926" r="0.926" transform="translate(12.593 14.074)" fill="#686868"/>
    </g>
  </g>
</svg>
