<svg xmlns="http://www.w3.org/2000/svg" width="25.5" height="25.5" viewBox="0 0 25.5 25.5">
  <g id="category" transform="translate(-1.75 -1.75)">
    <path id="Path_56864" data-name="Path 56864" d="M12.836,13.664H6.164A4.164,4.164,0,0,1,2,9.5V6.164A4.164,4.164,0,0,1,6.164,2H9.5a4.164,4.164,0,0,1,4.164,4.164v6.664a.836.836,0,0,1-.828.836Zm-6.672-10a2.5,2.5,0,0,0-2.5,2.5V9.5a2.5,2.5,0,0,0,2.5,2.5H12V6.164a2.5,2.5,0,0,0-2.5-2.5Z" transform="translate(0 0)" stroke="#fff" stroke-width="0.5"/>
    <path id="Path_56865" data-name="Path 56865" d="M26.568,13.664H19.9a.836.836,0,0,1-.836-.836V6.164A4.164,4.164,0,0,1,23.232,2h3.336a4.164,4.164,0,0,1,4.164,4.164V9.5A4.164,4.164,0,0,1,26.568,13.664ZM20.732,12h5.836a2.5,2.5,0,0,0,2.5-2.5V6.164a2.5,2.5,0,0,0-2.5-2.5H23.232a2.5,2.5,0,0,0-2.5,2.5Z" transform="translate(-3.732 0)" stroke="#fff" stroke-width="0.5"/>
    <path id="Path_56866" data-name="Path 56866" d="M9.5,30.734H6.164A4.164,4.164,0,0,1,2,26.57V23.234A4.164,4.164,0,0,1,6.164,19.07h6.664a.836.836,0,0,1,.836.836V26.57A4.164,4.164,0,0,1,9.5,30.734Zm-3.336-10a2.5,2.5,0,0,0-2.5,2.5V26.57a2.5,2.5,0,0,0,2.5,2.5H9.5a2.5,2.5,0,0,0,2.5-2.5V20.734Z" transform="translate(0 -3.734)" stroke="#fff" stroke-width="0.5"/>
    <path id="Path_56867" data-name="Path 56867" d="M26.57,30.732H23.234a4.164,4.164,0,0,1-4.164-4.164V19.9a.836.836,0,0,1,.836-.836H26.57a4.164,4.164,0,0,1,4.164,4.172v3.336A4.164,4.164,0,0,1,26.57,30.732Zm-5.836-10v5.836a2.5,2.5,0,0,0,2.5,2.5H26.57a2.5,2.5,0,0,0,2.5-2.5V23.232a2.5,2.5,0,0,0-2.5-2.5Z" transform="translate(-3.734 -3.732)" stroke="#fff" stroke-width="0.5"/>
  </g>
</svg>
