<svg xmlns="http://www.w3.org/2000/svg" width="18" height="19.646" viewBox="0 0 18 19.646">
  <g id="filter" transform="translate(98.334 -64.267) rotate(90)">
    <path id="Path_56927" data-name="Path 56927" d="M83.145,81.98H71.44a2.414,2.414,0,0,0-4.577,0H65.036a.769.769,0,1,0,0,1.537h1.827a2.414,2.414,0,0,0,4.577,0h11.7a.769.769,0,1,0,0-1.537ZM69.151,83.627a.878.878,0,1,1,.878-.878A.879.879,0,0,1,69.151,83.627Z" transform="translate(0)"/>
    <path id="Path_56928" data-name="Path 56928" d="M83.145,210.513H81.318a2.414,2.414,0,0,0-4.577,0h-11.7a.768.768,0,1,0,0,1.537h11.7a2.414,2.414,0,0,0,4.577,0h1.827a.768.768,0,1,0,0-1.537Zm-4.116,1.646a.878.878,0,1,1,.878-.878A.879.879,0,0,1,79.029,212.16Z" transform="translate(0 -121.948)"/>
    <path id="Path_56929" data-name="Path 56929" d="M83.145,339.046H74.733a2.414,2.414,0,0,0-4.577,0h-5.12a.769.769,0,0,0,0,1.537h5.12a2.414,2.414,0,0,0,4.577,0h8.412a.769.769,0,1,0,0-1.537Zm-10.7,1.646a.878.878,0,1,1,.878-.878A.879.879,0,0,1,72.444,340.693Z" transform="translate(0 -243.896)"/>
  </g>
</svg>
