<svg xmlns="http://www.w3.org/2000/svg" width="47.643" height="25.5" viewBox="0 0 47.643 25.5">
  <g id="motorcycle_1_" data-name="motorcycle(1)" transform="translate(0.25 -119.992)">
    <path id="Path_56959" data-name="Path 56959" d="M39.071,129.1a8.072,8.072,0,0,0-1.78.2l-.563-1.77h1.605a1.43,1.43,0,0,0,1.429-1.429v-1.476a1.43,1.43,0,0,0-1.429-1.429H36.857a2.155,2.155,0,0,0-1.356.479l-.611-1.922a2.159,2.159,0,0,0-2.065-1.51H30.952a.691.691,0,0,0,0,1.381h1.873a.783.783,0,0,1,.749.547l.561,1.762h-3.7a3.258,3.258,0,0,0-2.068-.738H25.047a4.383,4.383,0,0,0-3.791,2.19L8.878,123.43a2.279,2.279,0,0,0-.908,4.463l5.376,1.344a16.933,16.933,0,0,0,2.281.4l.461,1.842-1.672.7a8.07,8.07,0,1,0,1.567,6.6l2.857.816a12.5,12.5,0,0,0,3.434.481h4.351a2.751,2.751,0,0,0,1.961-.813,2.9,2.9,0,0,0,.843-2.073v-.019a9.653,9.653,0,0,1,6.068-8.958l.479,1.5a8.071,8.071,0,1,0,3.1-.618Zm-14.024-4.524h3.321a1.893,1.893,0,0,1,0,3.785H22.833a.786.786,0,0,1-.786-.786A3,3,0,0,1,25.047,124.576Zm-3.69,5.167a.786.786,0,1,1-.786.786A.786.786,0,0,1,21.357,129.742ZM13.68,127.9,8.3,126.553a.9.9,0,0,1,.358-1.759L20.754,126.7a4.386,4.386,0,0,0-.087.872,2.154,2.154,0,0,0,.148.786H17.451A15.558,15.558,0,0,1,13.68,127.9ZM8.071,143.861a6.69,6.69,0,1,1,5.009-11.124L7.238,135.17a2.167,2.167,0,1,0,1.666,4L11.716,138a3.738,3.738,0,1,1-3.644-4.567.691.691,0,0,0,0-1.381,5.119,5.119,0,1,0,5.114,5.336l1.562-.651c.009.144.015.289.015.434a6.7,6.7,0,0,1-6.69,6.69Zm.3-5.965a.786.786,0,1,1-.6-1.45l8.856-3.69a.786.786,0,1,1,.605,1.45Zm19.673-.725v.024a1.526,1.526,0,0,1-.44,1.092,1.38,1.38,0,0,1-.983.408H22.273a11.117,11.117,0,0,1-3.055-.428l-3.078-.88q0-.108,0-.216a8.177,8.177,0,0,0-.061-.99l1.68-.7a2.165,2.165,0,0,0-.275-4.091l-.413-1.653c.126,0,.252.006.378.006h1.887a2.167,2.167,0,1,0,4.037,0h1.719v.048a2.908,2.908,0,0,0,2.9,2.9h1a11,11,0,0,0-.952,4.476Zm1.688-5.857H28a1.525,1.525,0,0,1-1.524-1.524v-.048h1.893a3.273,3.273,0,0,0,3.063-4.429h3.142l.5,1.58a11.013,11.013,0,0,0-5.341,4.42Zm7.122-6.738h1.476a.048.048,0,0,1,.048.048V126.1a.048.048,0,0,1-.048.048H36.857a.786.786,0,1,1,0-1.571Zm2.214,19.285A6.689,6.689,0,0,1,36.4,131.04l.479,1.506a5.118,5.118,0,1,0,4.189-.092.691.691,0,0,0-.538,1.272,3.739,3.739,0,1,1-3.227.153l1.114,3.5a.691.691,0,0,0,1.316-.419l-2.018-6.342a6.691,6.691,0,1,1,1.36,13.242Z" stroke="#fff" stroke-width="0.5"/>
    <path id="Path_56960" data-name="Path 56960" d="M226.619,264.532a2.167,2.167,0,1,0,2.167,2.167A2.169,2.169,0,0,0,226.619,264.532Zm0,2.952a.786.786,0,1,1,.786-.786A.786.786,0,0,1,226.619,267.484Z" transform="translate(-203.786 -131.004)" stroke="#fff" stroke-width="0.5"/>
  </g>
</svg>
