<svg xmlns="http://www.w3.org/2000/svg" width="22" height="22" viewBox="0 0 22 22">
  <g id="category" transform="translate(-2 -2)">
    <path id="Path_56864" data-name="Path 56864" d="M11.536,12.264H5.664A3.664,3.664,0,0,1,2,8.6V5.664A3.664,3.664,0,0,1,5.664,2H8.6a3.664,3.664,0,0,1,3.664,3.664v5.864a.736.736,0,0,1-.729.736Zm-5.871-8.8a2.2,2.2,0,0,0-2.2,2.2V8.6a2.2,2.2,0,0,0,2.2,2.2H10.8V5.664a2.2,2.2,0,0,0-2.2-2.2Z" transform="translate(0 0)" fill="#b7b7b7"/>
    <path id="Path_56865" data-name="Path 56865" d="M25.667,12.264H19.8a.736.736,0,0,1-.736-.736V5.664A3.664,3.664,0,0,1,22.731,2h2.936a3.664,3.664,0,0,1,3.664,3.664V8.6A3.664,3.664,0,0,1,25.667,12.264ZM20.531,10.8h5.136a2.2,2.2,0,0,0,2.2-2.2V5.664a2.2,2.2,0,0,0-2.2-2.2H22.731a2.2,2.2,0,0,0-2.2,2.2Z" transform="translate(-5.331 0)" fill="#b7b7b7"/>
    <path id="Path_56866" data-name="Path 56866" d="M8.6,29.334H5.664A3.664,3.664,0,0,1,2,25.67V22.734A3.664,3.664,0,0,1,5.664,19.07h5.864a.736.736,0,0,1,.736.736V25.67A3.664,3.664,0,0,1,8.6,29.334Zm-2.936-8.8a2.2,2.2,0,0,0-2.2,2.2V25.67a2.2,2.2,0,0,0,2.2,2.2H8.6a2.2,2.2,0,0,0,2.2-2.2V20.534Z" transform="translate(0 -5.334)" fill="#b7b7b7"/>
    <path id="Path_56867" data-name="Path 56867" d="M25.67,29.331H22.734a3.664,3.664,0,0,1-3.664-3.664V19.8a.736.736,0,0,1,.736-.736H25.67a3.664,3.664,0,0,1,3.664,3.671v2.936A3.664,3.664,0,0,1,25.67,29.331Zm-5.136-8.8v5.136a2.2,2.2,0,0,0,2.2,2.2H25.67a2.2,2.2,0,0,0,2.2-2.2V22.731a2.2,2.2,0,0,0-2.2-2.2Z" transform="translate(-5.334 -5.331)" fill="#b7b7b7"/>
  </g>
</svg>
