<svg xmlns="http://www.w3.org/2000/svg" width="25.671" height="22" viewBox="0 0 25.671 22">
  <g id="Layer_2" data-name="Layer 2" transform="translate(-1 -3.51)">
    <path id="Path_56870" data-name="Path 56870" d="M17.926,3.51H9.745A8.754,8.754,0,0,0,1,12.255V13.59a8.754,8.754,0,0,0,8.745,8.745H12.98L14.614,24.9a1.282,1.282,0,0,0,2.191-.017l1.574-2.567a8.463,8.463,0,0,0,8.292-8.429V12.255A8.754,8.754,0,0,0,17.926,3.51ZM24.96,13.89a6.743,6.743,0,0,1-6.734,6.734,1.386,1.386,0,0,0-1.181.667l-1.309,2.156-1.378-2.182a1.378,1.378,0,0,0-1.172-.642H9.762A7.042,7.042,0,0,1,2.711,13.59V12.255A7.042,7.042,0,0,1,9.745,5.221h8.18a7.042,7.042,0,0,1,7.034,7.034Z" fill="#b7b7b7"/>
    <path id="Path_56871" data-name="Path 56871" d="M19.413,10.59H10.856a.856.856,0,1,0,0,1.711h8.557a.856.856,0,1,0,0-1.711Z" transform="translate(-1.299 -1.022)" fill="#b7b7b7"/>
    <path id="Path_56872" data-name="Path 56872" d="M19.413,16.13H10.856a.856.856,0,0,0,0,1.711h8.557a.856.856,0,0,0,0-1.711Z" transform="translate(-1.299 -1.821)" fill="#b7b7b7"/>
  </g>
</svg>
