<svg xmlns="http://www.w3.org/2000/svg" width="13.461" height="16" viewBox="0 0 13.461 16">
  <g id="write" transform="translate(-7.875 0.025)">
    <path id="Path_56887" data-name="Path 56887" d="M9.494,13.448A1.137,1.137,0,0,0,9.83,13.4l2.879-.576a1.852,1.852,0,0,0,.848-.464l6.974-6.974a2.869,2.869,0,0,0,0-3.983L19.94.779a2.889,2.889,0,0,0-4,0L8.966,7.769a1.921,1.921,0,0,0-.464.848l-.608,2.911a1.628,1.628,0,0,0,1.6,1.92Zm.544-4.527,6.974-6.99a1.286,1.286,0,0,1,1.76,0l.608.608a1.241,1.241,0,0,1,0,1.84l-6.958,6.99-2.959.5Z" transform="translate(0 0)"/>
    <path id="Path_56888" data-name="Path 56888" d="M20.573,90.4H8.768A.722.722,0,0,0,8,91.168a.767.767,0,0,0,.768.768H20.509a.77.77,0,1,0,.064-1.536Z" transform="translate(-0.105 -75.961)"/>
  </g>
</svg>
