<svg xmlns="http://www.w3.org/2000/svg" width="35.214" height="22" viewBox="0 0 35.214 22">
  <g id="computer" transform="translate(-0.003 -12.01)">
    <path id="Path_56833" data-name="Path 56833" d="M7.824,31.259H7.152A1.653,1.653,0,0,0,5.5,32.909v.55a.55.55,0,0,0,.55.55h11a.55.55,0,0,0,.55-.55v-.55a1.653,1.653,0,0,0-1.651-1.651h-.671l-.275-1.1h6.444A1.653,1.653,0,0,0,23.1,28.509V13.661a1.653,1.653,0,0,0-1.651-1.651H1.654A1.653,1.653,0,0,0,0,13.661V28.509A1.653,1.653,0,0,0,1.654,30.16H8.1Zm-.671,1.1h8.8a.55.55,0,0,1,.55.55H6.6a.55.55,0,0,1,.55-.55Zm7-1.1H8.957l.275-1.1h4.642ZM1.654,13.111h19.8a.55.55,0,0,1,.55.55v13.2H1.1v-13.2a.55.55,0,0,1,.55-.55Zm-.55,15.4v-.55h10.46a.553.553,0,1,0,.006,0H22v.55a.55.55,0,0,1-.55.55H1.654a.55.55,0,0,1-.55-.55Z" transform="translate(0 0)"/>
    <path id="Path_56834" data-name="Path 56834" d="M53.351,12.01h-7.7A1.653,1.653,0,0,0,44,13.661v18.7a1.653,1.653,0,0,0,1.651,1.651h7.7A1.653,1.653,0,0,0,55,32.359v-18.7A1.652,1.652,0,0,0,53.351,12.01Zm-8.255,3.3h8.8v.549H45.1Zm.55-2.2h7.7a.55.55,0,0,1,.55.55v.548H45.1v-.548A.55.55,0,0,1,45.647,13.111Zm7.7,19.8h-7.7a.55.55,0,0,1-.55-.55v-15.4h8.8v15.4A.55.55,0,0,1,53.351,32.909Z" transform="translate(-19.785)"/>
    <path id="Path_56835" data-name="Path 56835" d="M52.648,30.306A1.651,1.651,0,1,0,51,28.655,1.653,1.653,0,0,0,52.648,30.306Zm0-2.2a.55.55,0,1,1-.55.55A.55.55,0,0,1,52.648,28.1Z" transform="translate(-22.933 -6.743)"/>
    <path id="Path_56836" data-name="Path 56836" d="M53.949,39.006h-4.4a.55.55,0,1,0,0,1.1h4.4a.55.55,0,1,0,0-1.1Z" transform="translate(-22.034 -12.141)"/>
    <path id="Path_56837" data-name="Path 56837" d="M53.949,42.006h-4.4a.55.55,0,0,0,0,1.1h4.4a.55.55,0,0,0,0-1.1Z" transform="translate(-22.034 -13.49)"/>
    <path id="Path_56838" data-name="Path 56838" d="M53.949,45.006h-4.4a.55.55,0,1,0,0,1.1h4.4a.55.55,0,1,0,0-1.1Z" transform="translate(-22.034 -14.839)"/>
  </g>
</svg>
