<svg xmlns="http://www.w3.org/2000/svg" width="30" height="30" viewBox="0 0 30 30">
  <g id="living-room" transform="translate(-16 -16)">
    <path id="Path_56961" data-name="Path 56961" d="M16.26,172.742l1.037.567.567,1.037a.5.5,0,0,0,.877,0l.567-1.037,1.037-.567a.5.5,0,0,0,0-.877l-1.037-.567-.567-1.037a.5.5,0,0,0-.877,0L17.3,171.3l-1.037.567a.5.5,0,0,0,0,.877Zm1.645-.637a.5.5,0,0,0,.2-.2l.2-.363.2.363a.5.5,0,0,0,.2.2l.363.2-.363.2a.5.5,0,0,0-.2.2l-.2.363-.2-.363a.5.5,0,0,0-.2-.2l-.363-.2Z" transform="translate(0 -144.375)"/>
    <path id="Path_56962" data-name="Path 56962" d="M102.572,58.742l1.037.567.567,1.037a.5.5,0,0,0,.877,0l.567-1.037,1.037-.567a.5.5,0,0,0,0-.877l-1.037-.567-.567-1.037a.5.5,0,0,0-.877,0l-.567,1.037-1.037.567a.5.5,0,0,0,0,.877Zm1.645-.637a.5.5,0,0,0,.2-.2l.2-.363.2.363a.5.5,0,0,0,.2.2l.363.2-.363.2a.5.5,0,0,0-.2.2l-.2.363-.2-.363a.5.5,0,0,0-.2-.2l-.363-.2Z" transform="translate(-80.918 -37.5)"/>
    <path id="Path_56963" data-name="Path 56963" d="M39.25,272H21v1H39.25a.751.751,0,0,1,.75.75V276h-.125a2.378,2.378,0,0,0-2.375,2.375v.125H35.831a1.74,1.74,0,0,0,.169-.75v-1.5a1.752,1.752,0,0,0-1.75-1.75h-1.5A1.752,1.752,0,0,0,31,276.25v1.5a1.74,1.74,0,0,0,.169.75h-.794a2.372,2.372,0,0,0-1.875.919,2.372,2.372,0,0,0-1.875-.919h-.794a1.74,1.74,0,0,0,.169-.75v-1.5a1.752,1.752,0,0,0-1.75-1.75h-1.5A1.752,1.752,0,0,0,21,276.25v1.5a1.74,1.74,0,0,0,.169.75H19.5v-.125A2.378,2.378,0,0,0,17.125,276H17v-2.25a.751.751,0,0,1,.75-.75H20v-1H17.75A1.752,1.752,0,0,0,16,273.75V285.5a.5.5,0,0,0,.5.5H19a.5.5,0,0,0,.5-.5v-1h15v-1h-15v-1h18v1h-2v1h2v1a.5.5,0,0,0,.5.5h2.5a.5.5,0,0,0,.5-.5V273.75A1.752,1.752,0,0,0,39.25,272ZM32,277.75v-1.5a.751.751,0,0,1,.75-.75h1.5a.751.751,0,0,1,.75.75v1.5a.751.751,0,0,1-.75.75h-1.5A.751.751,0,0,1,32,277.75Zm-10,0v-1.5a.751.751,0,0,1,.75-.75h1.5a.751.751,0,0,1,.75.75v1.5a.751.751,0,0,1-.75.75h-1.5A.751.751,0,0,1,22,277.75ZM18.5,285H17v-8h.125a1.377,1.377,0,0,1,1.375,1.375Zm1-5.5h7.125A1.377,1.377,0,0,1,28,280.875v.625H19.5Zm9.5,2v-.625a1.377,1.377,0,0,1,1.375-1.375H37.5v2ZM40,285H38.5v-6.625A1.377,1.377,0,0,1,39.875,277H40Z" transform="translate(0 -240)"/>
    <path id="Path_56964" data-name="Path 56964" d="M211,20V16.5a.5.5,0,0,0-.5-.5h-18a.5.5,0,0,0-.5.5V31h1V30h17v2h-3v1h3v4h-3v1h3v7h-3v1h3.5a.5.5,0,0,0,.5-.5V21h-1v2h-5V17h5v3Zm-7,3h-5V17h5Zm-11-6h5v6h-5Zm0,7h11v5H193Zm17,5h-2V24h2Zm-3-5v5h-2V24Z" transform="translate(-165 0)"/>
    <path id="Path_56965" data-name="Path 56965" d="M224,168h1v2h-1Z" transform="translate(-195 -142.5)"/>
    <path id="Path_56966" data-name="Path 56966" d="M256,72h1v1h-1Z" transform="translate(-225 -52.5)"/>
    <path id="Path_56967" data-name="Path 56967" d="M320,72h1v1h-1Z" transform="translate(-285 -52.5)"/>
    <path id="Path_56968" data-name="Path 56968" d="M424,96h2v1h-2Z" transform="translate(-382.5 -75)"/>
    <path id="Path_56969" data-name="Path 56969" d="M432,408h1v2h-1Z" transform="translate(-390 -367.5)"/>
  </g>
</svg>
