<svg xmlns="http://www.w3.org/2000/svg" width="21.623" height="21.527" viewBox="0 0 21.623 21.527">
  <path id="homepage" d="M25.123,11.964v11.13a2.238,2.238,0,0,1-2.236,2.236H19.161a1.491,1.491,0,0,1-1.491-1.491v-4.1a.745.745,0,0,0-.745-.745H13.2a.745.745,0,0,0-.745.745v4.1a1.491,1.491,0,0,1-1.491,1.491H7.236A2.238,2.238,0,0,1,5,23.094V11.964a1.5,1.5,0,0,1,.724-1.279l8.571-5.143a1.491,1.491,0,0,1,1.534,0L24.4,10.685A1.5,1.5,0,0,1,25.123,11.964Z" transform="translate(-4.25 -4.553)" fill="rgba(0,9,112,100)" stroke="#fff" stroke-width="1.5"/>
</svg>
