<svg xmlns="http://www.w3.org/2000/svg" width="15.001" height="15" viewBox="0 0 15.001 15">
  <g id="tag" transform="translate(-0.002 -0.001)">
    <path id="Path_56914" data-name="Path 56914" d="M7.862.5A1.722,1.722,0,0,0,6.605,0L1.8.124A1.715,1.715,0,0,0,.125,1.8L0,6.6A1.724,1.724,0,0,0,.5,7.862L7.142,14.5a1.718,1.718,0,0,0,2.427,0L14.5,9.568a1.716,1.716,0,0,0,0-2.427Zm6.152,8.579L9.083,14.014a1.031,1.031,0,0,1-1.456,0L.99,7.376a1.034,1.034,0,0,1-.3-.755L.811,1.814a1.029,1.029,0,0,1,1-1L6.622.688h.026a1.034,1.034,0,0,1,.728.3l6.638,6.637a1.031,1.031,0,0,1,0,1.456Zm0,0" transform="translate(0 0)"/>
    <path id="Path_56915" data-name="Path 56915" d="M84.223,82.574a1.653,1.653,0,1,0,1.652,1.653A1.653,1.653,0,0,0,84.223,82.574Zm0,2.619a.966.966,0,1,1,.966-.966A.966.966,0,0,1,84.223,85.193Zm0,0" transform="translate(-79.735 -79.739)"/>
  </g>
</svg>
