<svg id="delivery-box" xmlns="http://www.w3.org/2000/svg" width="15" height="15" viewBox="0 0 15 15">
  <g id="Group_1059" data-name="Group 1059" transform="translate(0 0)">
    <g id="Group_1058" data-name="Group 1058">
      <path id="Path_56923" data-name="Path 56923" d="M14.992,3.24a.453.453,0,0,0-.019-.093.473.473,0,0,0-.036-.087.346.346,0,0,0-.016-.039L13.046.208A.471.471,0,0,0,12.656,0H2.344a.47.47,0,0,0-.39.209L.079,3.022a.288.288,0,0,0-.016.039.473.473,0,0,0-.036.087.453.453,0,0,0-.019.093A.255.255,0,0,0,0,3.281V14.063A.938.938,0,0,0,.938,15H14.063A.938.938,0,0,0,15,14.063V3.281A.292.292,0,0,0,14.992,3.24ZM12.405.937l1.251,1.875H9.3L8.991.937Zm-5.446,0H8.04l.313,1.875H6.647Zm-.4,2.813H8.438V5.444L7.648,5.18a.484.484,0,0,0-.3,0l-.789.264ZM2.595.937H6.009L5.7,2.812H1.344ZM14.063,14.531v-.469H.938V3.75H5.625V6.094a.465.465,0,0,0,.2.38.476.476,0,0,0,.422.066L7.5,6.119l1.258.419a.476.476,0,0,0,.148.024.47.47,0,0,0,.469-.469V3.75h4.688V14.063h0Z" transform="translate(0 0)"/>
    </g>
  </g>
  <g id="Group_1061" data-name="Group 1061" transform="translate(1.875 10.313)">
    <g id="Group_1060" data-name="Group 1060">
      <path id="Path_56924" data-name="Path 56924" d="M67.281,352H64.469a.469.469,0,0,0,0,.938h2.813a.469.469,0,0,0,0-.937Z" transform="translate(-64 -352)"/>
    </g>
  </g>
  <g id="Group_1063" data-name="Group 1063" transform="translate(1.875 12.188)">
    <g id="Group_1062" data-name="Group 1062">
      <path id="Path_56925" data-name="Path 56925" d="M65.875,416H64.469a.469.469,0,0,0,0,.938h1.406a.469.469,0,0,0,0-.937Z" transform="translate(-64 -416)"/>
    </g>
  </g>
</svg>
