<svg xmlns="http://www.w3.org/2000/svg" width="14.835" height="15" viewBox="0 0 14.835 15">
  <g id="graphics-layouts" transform="translate(-2.677)">
    <path id="Path_56917" data-name="Path 56917" d="M9.426,0H3.186a.509.509,0,0,0-.509.509V14.491A.509.509,0,0,0,3.186,15h6.24a.509.509,0,0,0,.509-.509V.509A.509.509,0,0,0,9.426,0ZM8.916,13.981H3.7V1.019H8.916V13.981Z"/>
    <path id="Path_56918" data-name="Path 56918" d="M271.236,0H265.51A.509.509,0,0,0,265,.509V6.558a.509.509,0,0,0,.509.509h5.726a.509.509,0,0,0,.509-.509V.509A.509.509,0,0,0,271.236,0Zm-.509,6.049H266.02V1.019h4.707Z" transform="translate(-254.234)"/>
    <path id="Path_56919" data-name="Path 56919" d="M271.236,257.211H265.51a.509.509,0,0,0-.509.509v6.049a.509.509,0,0,0,.509.509h5.726a.509.509,0,0,0,.509-.509V257.72A.509.509,0,0,0,271.236,257.211Zm-.509,6.049H266.02v-5.03h4.707Z" transform="translate(-254.234 -249.278)"/>
  </g>
</svg>
