<svg xmlns="http://www.w3.org/2000/svg" width="34.84" height="38" viewBox="0 0 34.84 38">
  <g id="smartphone" transform="translate(-21.278)">
    <path id="Path_56930" data-name="Path 56930" d="M80.909,86.272a.6.6,0,0,0,.787-.036.557.557,0,1,0-.787.036Z" transform="translate(-55.036 -78.969)"/>
    <path id="Path_56931" data-name="Path 56931" d="M55.654,119.754a.575.575,0,0,0,.767-.178.557.557,0,1,0-.767.178Z" transform="translate(-31.581 -109.908)"/>
    <path id="Path_56932" data-name="Path 56932" d="M112.307,58.194a.575.575,0,0,0,.444-.893.557.557,0,1,0-.444.893Z" transform="translate(-83.753 -52.841)"/>
    <path id="Path_56933" data-name="Path 56933" d="M36.988,157.305a.585.585,0,0,0,.721-.318.557.557,0,1,0-.721.318Z" transform="translate(-14.214 -144.627)"/>
    <path id="Path_56934" data-name="Path 56934" d="M25.593,197.672a.6.6,0,0,0,.65-.446.557.557,0,1,0-.65.446Z" transform="translate(-3.574 -181.971)"/>
    <path id="Path_56935" data-name="Path 56935" d="M36.863,320.478a.557.557,0,0,0,.2,1.077.587.587,0,0,0,.52-.758A.557.557,0,0,0,36.863,320.478Z" transform="translate(-14.099 -296.645)"/>
    <path id="Path_56936" data-name="Path 56936" d="M25.731,281.2a.557.557,0,1,0-.649-.446A.556.556,0,0,0,25.731,281.2Z" transform="translate(-3.513 -259.295)"/>
    <path id="Path_56937" data-name="Path 56937" d="M21.835,239.444a.557.557,0,1,0-.557-.558.557.557,0,0,0,.557.558Z" transform="translate(0 -220.632)"/>
    <path id="Path_56938" data-name="Path 56938" d="M441.052,360.179a.557.557,0,1,0,.172.769A.557.557,0,0,0,441.052,360.179Z" transform="translate(-387.81 -333.352)"/>
    <path id="Path_56939" data-name="Path 56939" d="M442.936,120.971a.557.557,0,0,0-.187.765.576.576,0,0,0,.766.187.557.557,0,1,0-.579-.952Z" transform="translate(-390.098 -111.913)"/>
    <path id="Path_56940" data-name="Path 56940" d="M417.9,87.334a.557.557,0,1,0,.786.044A.557.557,0,0,0,417.9,87.334Z" transform="translate(-367 -80.718)"/>
    <path id="Path_56941" data-name="Path 56941" d="M460.149,322.811a.557.557,0,0,0-.724.31.586.586,0,0,0,.517.764.557.557,0,0,0,.207-1.074Z" transform="translate(-405.579 -298.802)"/>
    <path id="Path_56942" data-name="Path 56942" d="M476.011,240.84a.557.557,0,0,0-.563.552.589.589,0,0,0,.557.562.557.557,0,0,0,.006-1.114Z" transform="translate(-420.444 -222.955)"/>
    <path id="Path_56943" data-name="Path 56943" d="M461.562,159.73a.55.55,0,0,0,.2-.036.557.557,0,1,0-.2.036Z" transform="translate(-407.073 -146.839)"/>
    <path id="Path_56944" data-name="Path 56944" d="M472.051,199.7a.6.6,0,0,0,.645.452.557.557,0,1,0-.645-.452Z" transform="translate(-417.292 -184.264)"/>
    <path id="Path_56945" data-name="Path 56945" d="M415.485,393.423a.557.557,0,1,0,.028.787A.557.557,0,0,0,415.485,393.423Z" transform="translate(-364.067 -364.069)"/>
    <path id="Path_56946" data-name="Path 56946" d="M471.88,282.557a.557.557,0,0,0-.654.439.6.6,0,0,0,.547.665.557.557,0,0,0,.107-1.1Z" transform="translate(-416.528 -261.565)"/>
    <path id="Path_56947" data-name="Path 56947" d="M267.357,464.856h0a.558.558,0,0,0-.511.6.6.6,0,0,0,.6.511.557.557,0,1,0-.089-1.11Z" transform="translate(-227.33 -430.335)"/>
    <path id="Path_56948" data-name="Path 56948" d="M347.716,442.971a.556.556,0,0,0-.258.744.579.579,0,0,0,.744.258.557.557,0,1,0-.486-1Z" transform="translate(-301.907 -410.025)"/>
    <path id="Path_56949" data-name="Path 56949" d="M308.553,457.667a.557.557,0,0,0-.391.684.592.592,0,0,0,.684.391A.557.557,0,0,0,308.553,457.667Z" transform="translate(-265.561 -423.664)"/>
    <path id="Path_56950" data-name="Path 56950" d="M387.9,58.744h0a.557.557,0,1,0,.1.781A.558.558,0,0,0,387.9,58.744Z" transform="translate(-338.569 -54.274)"/>
    <path id="Path_56951" data-name="Path 56951" d="M383.494,421.31a.557.557,0,1,0,.779.117A.557.557,0,0,0,383.494,421.31Z" transform="translate(-335.11 -389.923)"/>
    <path id="Path_56952" data-name="Path 56952" d="M225.532,464.393h0a.558.558,0,0,0-.611.5.6.6,0,0,0,.555.614.557.557,0,0,0,.056-1.111Z" transform="translate(-188.518 -429.905)"/>
    <path id="Path_56953" data-name="Path 56953" d="M58.3,18.374a2.175,2.175,0,0,0-.727-1.624,2.206,2.206,0,0,0,0-3.254,2.206,2.206,0,0,0,0-3.254A2.2,2.2,0,0,0,56.4,6.449V2.233A2.235,2.235,0,0,0,54.164,0H47.107a.557.557,0,0,0,0,1.114h7.057a1.12,1.12,0,0,1,1.119,1.119v.295H41.531V2.233A1.12,1.12,0,0,1,42.65,1.114h1.414a.557.557,0,0,0,0-1.114H42.65a2.235,2.235,0,0,0-2.233,2.233v8.153a2.347,2.347,0,0,0-3.565,1.969v13.06l-1.043,1.048A3.03,3.03,0,0,0,32.4,31.355l3.447,3.463a.557.557,0,0,0,.789-.786l-3.447-3.463a1.913,1.913,0,1,1,2.7-2.712l5.749,5.776a1.927,1.927,0,0,1,0,2.712,1.968,1.968,0,0,1-2.917-.219.557.557,0,0,0-.789.786,3.035,3.035,0,0,0,4.864-3.617l1-1.008a7.58,7.58,0,0,0,7.293-4.14h3.077A2.235,2.235,0,0,0,56.4,25.914v-5.37a2.186,2.186,0,0,0,1.9-2.17Zm-1.114.007a1.068,1.068,0,0,1-1.066,1.066h-.972a1.07,1.07,0,0,1,0-2.14h.972A1.069,1.069,0,0,1,57.187,18.382Zm0-3.254a1.068,1.068,0,0,1-1.066,1.066h-.972a1.07,1.07,0,0,1,0-2.14h.972a1.069,1.069,0,0,1,1.066,1.074Zm0-3.254a1.068,1.068,0,0,1-1.066,1.066h-.972a1.07,1.07,0,0,1,0-2.14h.972A1.069,1.069,0,0,1,57.187,11.873Zm0-3.262a1.1,1.1,0,0,1-1.066,1.074h-.972a1.07,1.07,0,0,1,0-2.14h.972A1.068,1.068,0,0,1,57.187,8.612Zm-1.9-4.97v2.79a2.191,2.191,0,0,0-1.588,3.811,2.194,2.194,0,0,0,0,3.254,2.194,2.194,0,0,0,0,3.254,2.191,2.191,0,0,0,1.588,3.811v2.79H44.722a6.43,6.43,0,0,0-3.191-4.594V3.641ZM44.379,31.2l-.78-.036a.562.562,0,0,0-.421.163l-1.135,1.14-5.319-5.344L37.8,26.038a.557.557,0,0,0,.162-.393V12.355a1.21,1.21,0,0,1,2.419,0v6.739a.557.557,0,0,0,.336.511,5.018,5.018,0,0,1,2.764,3.348,6.247,6.247,0,0,1-.715,5.15.557.557,0,0,0,.918.631,6.015,6.015,0,0,0,.356-.587h5.771A6.347,6.347,0,0,1,44.379,31.2Zm9.785-4.166H44.508a7.58,7.58,0,0,0,.338-2.567H55.282v1.449A1.12,1.12,0,0,1,54.164,27.033Z" transform="translate(-9.475)"/>
    <path id="Path_56954" data-name="Path 56954" d="M185.747,73.073a.557.557,0,0,0,.787-.01l1.63-1.673a.557.557,0,0,0-.8-.777l-1.63,1.673A.557.557,0,0,0,185.747,73.073Z" transform="translate(-152.1 -65.211)"/>
    <path id="Path_56955" data-name="Path 56955" d="M185.747,76.654a.557.557,0,0,0,.787-.01l5.119-5.254a.557.557,0,0,0-.8-.777l-5.119,5.254A.557.557,0,0,0,185.747,76.654Z" transform="translate(-152.1 -65.211)"/>
  </g>
</svg>
