<svg xmlns="http://www.w3.org/2000/svg" width="20.501" height="22" viewBox="0 0 20.501 22">
  <g id="user" transform="translate(-17.44)">
    <g id="Group_1113" data-name="Group 1113" transform="translate(17.44 12.392)">
      <g id="Group_1112" data-name="Group 1112">
        <path id="Path_56873" data-name="Path 56873" d="M27.691,288.389c-6.61,0-10.251,3.127-10.251,8.805a.8.8,0,0,0,.8.8h18.9a.8.8,0,0,0,.8-.8C37.941,291.516,34.3,288.389,27.691,288.389Zm-8.616,8c.316-4.246,3.21-6.4,8.616-6.4s8.3,2.151,8.616,6.4Z" transform="translate(-17.44 -288.389)" fill="#b7b7b7"/>
      </g>
    </g>
    <g id="Group_1115" data-name="Group 1115" transform="translate(22.365)">
      <g id="Group_1114" data-name="Group 1114">
        <path id="Path_56874" data-name="Path 56874" d="M137.375,0a5.262,5.262,0,0,0-5.326,5.433,5.344,5.344,0,1,0,10.652,0A5.262,5.262,0,0,0,137.375,0Zm0,9.608a3.972,3.972,0,0,1-3.72-4.175,3.651,3.651,0,0,1,3.72-3.827,3.692,3.692,0,0,1,3.72,3.827A3.972,3.972,0,0,1,137.375,9.608Z" transform="translate(-132.049)" fill="#b7b7b7"/>
      </g>
    </g>
  </g>
</svg>
