<svg xmlns="http://www.w3.org/2000/svg" width="29.618" height="28" viewBox="0 0 29.618 28">
  <g id="sports" transform="translate(-5.528 -18.978)">
    <path id="Path_56970" data-name="Path 56970" d="M319.347,45.78c-2.4-1.1-5.515.518-6.946,3.616a6.913,6.913,0,0,0-.366,5.223,4.109,4.109,0,0,0,2.124,2.4,3.818,3.818,0,0,0,1.606.346A6.32,6.32,0,0,0,321.1,53.4a6.912,6.912,0,0,0,.366-5.223,4.109,4.109,0,0,0-2.123-2.4Zm.016.81a3.319,3.319,0,0,1,1.178,1.255l-.11.238-1.449-.667Zm-5.008,5.348.547-1.185,1.45.667L315.8,52.6Zm1.153,1.31-.547,1.185-1.45-.667.547-1.185Zm-.308-3.139.547-1.185,1.45.667-.547,1.185Zm1.8,1.606,1.45.667-.547,1.185-1.45-.667Zm.3-.644.547-1.185,1.45.667-.547,1.185Zm.844-1.828.547-1.185,1.45.667-.547,1.185ZM317,46.215a3.649,3.649,0,0,1,.73-.076,3.186,3.186,0,0,1,.992.155l-.381.825-1.45-.667Zm-.407.881,1.45.667-.547,1.185-1.45-.667Zm-.869-.4.225.1-.547,1.185-.87-.4A5.747,5.747,0,0,1,315.722,46.7Zm-1.7,1.436,1.079.5-.547,1.185-1.275-.586a7.069,7.069,0,0,1,.743-1.1Zm-1.055,1.732,1.29.594-.547,1.185-1.153-.531a7.249,7.249,0,0,1,.411-1.248Zm-.535,3.408a5.938,5.938,0,0,1,0-1.438l.982.452-.547,1.185Zm1.708,2.936a3.321,3.321,0,0,1-1.178-1.255l.25-.541,1.45.667Zm2.364.377a3.351,3.351,0,0,1-1.72-.081l.522-1.13,1.45.667Zm.548-1.187-1.45-.667.547-1.185,1.45.667Zm1.076.5-.433-.2.547-1.185.981.451a6.048,6.048,0,0,1-1.1.933Zm1.565-1.5-1.153-.53.547-1.185,1.291.594A7.2,7.2,0,0,1,319.7,54.4Zm.967-1.772-1.277-.587.547-1.185,1.083.5a7.078,7.078,0,0,1-.353,1.274Zm.442-2.014-.875-.4.547-1.185.228.1a5.655,5.655,0,0,1,.1,1.483Z" transform="translate(-288.073 -24.892)"/>
    <path id="Path_56971" data-name="Path 56971" d="M31.948,19.429c-3.073-1.414-7.038.611-8.84,4.513a8.654,8.654,0,0,0-.443,6.544,5.577,5.577,0,0,0,1.705,2.449l-1.408,3.049-.153-.033a3.154,3.154,0,0,0-.5-.066l-.258-.374a1.489,1.489,0,0,1-.252-1.037,2.2,2.2,0,0,0-.371-1.53L13.632,21.656A2.266,2.266,0,1,0,9.9,24.225l4.556,6.6A7.56,7.56,0,1,0,18.432,43.61c.054-.054.107-.109.159-.164a2.653,2.653,0,1,0,3.8-1.434l.572.118.638.346,1.59,2.3-.047.032a.81.81,0,0,0-.208,1.128,1.657,1.657,0,0,0,2.3.423l.932-.641a1.654,1.654,0,0,0,.481-.512l.4.214a1.782,1.782,0,0,0,1.316.154l1.54-.414a.594.594,0,0,0,.332-.917L31.068,42.59l2.187-.924.007,0a.594.594,0,0,0,.161-.978L31.863,39.16l1.713-1.092a.594.594,0,0,0,.034-.979l-1.262-.935a1.784,1.784,0,0,0-1.194-.346l-5.593.361,1.024-2.217a5.121,5.121,0,0,0,.916.082c2.6,0,5.341-1.905,6.753-4.963a8.653,8.653,0,0,0,.443-6.544,5.313,5.313,0,0,0-2.749-3.1ZM22.335,36.6l-.965,4.5a1.54,1.54,0,0,1-1.085-.5,7.57,7.57,0,0,0,.367-2.335,7.687,7.687,0,0,0-.044-.822A1.629,1.629,0,0,1,22.335,36.6Zm-1.6,5.1a2.637,2.637,0,0,0-1.162.454,7.471,7.471,0,0,0,.431-.827,2.075,2.075,0,0,0,.731.373ZM14.2,31.5a6.893,6.893,0,0,1,1.277.339A.354.354,0,0,0,15.9,31.7h0a.354.354,0,0,0-.173-.523c-.076-.028-.152-.055-.229-.081l-5.02-7.275a1.557,1.557,0,0,1,2.567-1.764l7.79,11.288a1.488,1.488,0,0,1,.252,1.037,2.2,2.2,0,0,0,.371,1.53l.029.041a2.411,2.411,0,0,0-1.052.518,7.513,7.513,0,0,0-2.007-3.562q-.22-.22-.454-.418a.354.354,0,1,0-.457.541c.051.044.1.089.152.134l-2.362,2.358A4.8,4.8,0,0,1,14.2,31.5Zm5.645,5.629a4.822,4.822,0,0,1-4.037-1.1l2.362-2.358a6.788,6.788,0,0,1,1.675,3.461Zm-6.776-5.722q.213,0,.426.013a5.5,5.5,0,0,0,1.309,4.607L13.074,37.76l-4.6-4.591a6.856,6.856,0,0,1,4.6-1.761ZM6.206,38.261A6.8,6.8,0,0,1,7.973,33.67l4.6,4.591-1.724,1.721a5.614,5.614,0,0,0-4.629-1.3C6.21,38.54,6.206,38.4,6.206,38.261ZM6.3,39.383a4.82,4.82,0,0,1,4.048,1.1L7.973,42.852A6.788,6.788,0,0,1,6.3,39.383Zm5.654,5.638a6.834,6.834,0,0,1-3.476-1.669l2.372-2.368a4.8,4.8,0,0,1,1.1,4.037Zm.7.079a5.592,5.592,0,0,0-1.306-4.617l1.724-1.721,4.6,4.591A6.863,6.863,0,0,1,12.656,45.1Zm5.519-2.248-4.6-4.591,1.735-1.732a5.516,5.516,0,0,0,3.66,1.39,5.625,5.625,0,0,0,.958-.083c.009.141.013.283.013.425a6.8,6.8,0,0,1-1.768,4.591Zm4.864,1.471a1.945,1.945,0,1,1-1.945-1.945,1.945,1.945,0,0,1,1.945,1.945Zm-.219-2.949-.75-.16.963-4.489.75.16Zm2.162,1.847,1.389.752-.59.405Zm2.791,1.918-.932.641a.948.948,0,0,1-1.315-.242.1.1,0,0,1,.026-.142l1.518-1.044.96.52a.944.944,0,0,1-.258.267Zm3.792-.616-1.382.372a1.075,1.075,0,0,1-.795-.093l-5.893-3.192.266-1.24,6.32,2.291a.774.774,0,0,1,.37.283Zm1.252-3.44-2.33.984-6.576-2.4.152-.709,6.89.5a1.488,1.488,0,0,0,.194-.013ZM31.2,36.516a1.077,1.077,0,0,1,.723.209l1.129.836-1.683,1.072a.783.783,0,0,1-.476.12l-6.684-.491.282-1.313Zm-6.447-.294-.527.034-.557-.119,1.288-2.79a4.985,4.985,0,0,0,.453.237,4.882,4.882,0,0,0,.474.188Zm8.854-7.448c-1.638,3.548-5.182,5.417-7.9,4.166a4.619,4.619,0,0,1-2.38-2.7,7.944,7.944,0,0,1,.422-6c1.293-2.8,3.773-4.555,6.1-4.555a4.285,4.285,0,0,1,1.8.389,4.619,4.619,0,0,1,2.38,2.7A7.944,7.944,0,0,1,33.61,28.774Z" transform="translate(0 0)"/>
    <path id="Path_56972" data-name="Path 56972" d="M96.8,81.16l-.068-.1a.354.354,0,1,0-.59.393l.067.1a.354.354,0,1,0,.59-.393Z" transform="translate(-85.208 -58.266)"/>
    <path id="Path_56973" data-name="Path 56973" d="M108.013,98a.354.354,0,1,0-.59.393l2.526,3.794a.354.354,0,1,0,.59-.393Z" transform="translate(-95.821 -74.209)"/>
  </g>
</svg>
