<svg xmlns="http://www.w3.org/2000/svg" width="31.747" height="19" viewBox="0 0 31.747 19">
  <g id="maestro" transform="translate(-6.344 -13.761)">
    <g id="Group_6607" data-name="Group 6607" transform="translate(6.344 13.761)">
      <path id="Path_74309" data-name="Path 74309" d="M76,146.985a9.5,9.5,0,1,0-6.364,2.456A9.456,9.456,0,0,0,76,146.985Z" transform="translate(-60.13 -130.442)" fill="#009ddd"/>
      <path id="Path_74310" data-name="Path 74310" d="M230.767,170.935a9.5,9.5,0,0,0,0-14.087v14.087Z" transform="translate(-214.894 -154.392)" fill="#009ddd"/>
    </g>
    <path id="Path_74311" data-name="Path 74311" d="M208.854,130.446a9.5,9.5,0,0,0-6.383,2.456,12.193,12.193,0,0,0-.949,1.006h1.916a12.192,12.192,0,0,1,.726,1h-3.369q-.306.5-.558,1H204.7c.15.335.3.671.409,1.005h-5.265a9.093,9.093,0,0,0-.28,1.023h5.824a10.113,10.113,0,0,1,.205,2.009,9.561,9.561,0,0,1-.485,3.015h-5.265q.166.5.389,1H204.7a10.326,10.326,0,0,1-.54,1H200.8a10.091,10.091,0,0,0,.726,1h1.916a9.777,9.777,0,0,1-.967,1,9.5,9.5,0,1,0,6.383-16.543Z" transform="translate(-180.254 -116.684)" fill="#ed1c2e"/>
    <g id="Group_6608" data-name="Group 6608" transform="translate(9.507 20.815)">
      <path id="Path_74312" data-name="Path 74312" d="M366.194,251.769a.31.31,0,0,1,.317-.3.293.293,0,0,1,.3.3.31.31,0,0,1-.3.317.327.327,0,0,1-.317-.317Zm.317.242a.231.231,0,0,0,.223-.242.215.215,0,0,0-.223-.223.23.23,0,0,0-.241.223.246.246,0,0,0,.241.242Zm-.037-.112H366.4v-.261h.111c.037,0,.056,0,.075.019s.037.037.037.056c0,.038-.018.075-.056.075l.056.111h-.075l-.037-.093h-.037v.093Zm0-.149h.074v-.057h-.074v.057Z" transform="translate(-340.887 -247.266)" fill="#fff"/>
      <path id="Path_74313" data-name="Path 74313" d="M99.294,211.085H98.1l.707-3.7-1.618,3.7h-1.08l-.186-3.685-.707,3.685H94.14l.912-4.819h1.86l.093,2.977,1.3-2.977h1.915Z" transform="translate(-94.14 -206.266)" fill="#fff"/>
      <path id="Path_74314" data-name="Path 74314" d="M274.158,211.034a3.022,3.022,0,0,1-.857.129c-.595,0-.931-.3-.931-.855a2.629,2.629,0,0,1,.037-.354l.074-.391.057-.3.539-3h1.172l-.167.892h.613l-.167.95h-.614l-.3,1.637a.9.9,0,0,0-.037.167c0,.205.13.3.41.3a1.351,1.351,0,0,0,.316-.037l-.149.857Z" transform="translate(-255.792 -206.27)" fill="#fff"/>
      <path id="Path_74315" data-name="Path 74315" d="M298.649,215.542a.317.317,0,0,0-.13-.038c-.056-.019-.093-.019-.093-.037h-.13a1.223,1.223,0,0,0-1.024.632l.111-.6H296.3l-.725,3.927h1.191c.428-2.4.6-2.829,1.172-2.829.037,0,.094.019.149.019l.13.037.429-1.116Z" transform="translate(-276.84 -214.611)" fill="#fff"/>
      <path id="Path_74316" data-name="Path 74316" d="M236.813,216.394c0,.484.28.837.912,1.08.484.2.559.26.559.447,0,.242-.224.354-.689.354a3.836,3.836,0,0,1-1.08-.167l-.149.912h.056l.2.055c.074,0,.185.019.316.019a4.868,4.868,0,0,0,.67.037c1.247,0,1.842-.409,1.842-1.3,0-.54-.242-.856-.856-1.1-.5-.186-.558-.242-.558-.428,0-.2.2-.316.6-.316a7.8,7.8,0,0,1,.855.055l.168-.893a7.138,7.138,0,0,0-1.042-.074c-1.339,0-1.8.594-1.8,1.32Z" transform="translate(-223.136 -214.255)" fill="#fff"/>
      <path id="Path_74317" data-name="Path 74317" d="M158.832,219.068h-.968l.019-.41a1.613,1.613,0,0,1-1.247.465,1.021,1.021,0,0,1-1.079-1.061c0-.95.762-1.508,2.084-1.508a4.586,4.586,0,0,1,.483.019.745.745,0,0,0,.037-.242c0-.26-.205-.354-.763-.354a5,5,0,0,0-.967.093l-.167.056-.112.018.167-.874a5.357,5.357,0,0,1,1.415-.2c1.023,0,1.544.39,1.544,1.134a4.162,4.162,0,0,1-.093.782l-.242,1.4-.037.242-.038.205-.018.129-.019.112Zm-.856-1.75a1.543,1.543,0,0,0-.26-.018c-.67,0-1,.2-1,.6a.381.381,0,0,0,.409.409.913.913,0,0,0,.857-.987Z" transform="translate(-149.844 -214.248)" fill="#fff"/>
      <path id="Path_74318" data-name="Path 74318" d="M201.178,218.784a4.5,4.5,0,0,1-1.21.167c-1.32,0-2.009-.614-2.009-1.768a2.143,2.143,0,0,1,2.066-2.326,1.409,1.409,0,0,1,1.583,1.414,4,4,0,0,1-.131.968h-2.364v.13c0,.447.335.688,1.024.688a3.143,3.143,0,0,0,1.228-.241l-.186.967Zm-.632-2.325v-.205c0-.316-.205-.5-.558-.5-.372,0-.633.26-.745.708Z" transform="translate(-188.302 -214.058)" fill="#fff"/>
      <path id="Path_74319" data-name="Path 74319" d="M327.562,216.9a2.093,2.093,0,0,1-2.308,1.879,1.667,1.667,0,0,1-1.859-1.8,2.2,2.2,0,0,1,2.325-2.327,1.712,1.712,0,0,1,1.88,1.768,2,2,0,0,1-.037.485Zm-1.228-.5c0-.409-.168-.78-.651-.78-.6,0-.969.706-.969,1.339,0,.521.261.875.67.875a1.154,1.154,0,0,0,.912-.949,2.056,2.056,0,0,0,.037-.485Z" transform="translate(-302.069 -213.871)" fill="#fff"/>
    </g>
  </g>
</svg>
