<svg xmlns="http://www.w3.org/2000/svg" width="17.578" height="20" viewBox="0 0 17.578 20">
  <g id="user" transform="translate(-31)">
    <g id="Group_982" data-name="Group 982" transform="translate(34.516)">
      <g id="Group_981" data-name="Group 981">
        <path id="Path_56850" data-name="Path 56850" d="M126.273,0a5.273,5.273,0,1,0,5.273,5.273A5.279,5.279,0,0,0,126.273,0Z" transform="translate(-121)" fill="#1e1e1e"/>
      </g>
    </g>
    <g id="Group_984" data-name="Group 984" transform="translate(31 11.719)">
      <g id="Group_983" data-name="Group 983">
        <path id="Path_56851" data-name="Path 56851" d="M46.35,302.273A7.518,7.518,0,0,0,40.961,300H38.617a7.518,7.518,0,0,0-5.389,2.273A7.685,7.685,0,0,0,31,307.7a.586.586,0,0,0,.586.586H47.992a.586.586,0,0,0,.586-.586A7.685,7.685,0,0,0,46.35,302.273Z" transform="translate(-31 -300)" fill="#1e1e1e"/>
      </g>
    </g>
  </g>
</svg>
