<svg xmlns="http://www.w3.org/2000/svg" width="20" height="15.258" viewBox="0 0 20 15.258">
  <g id="stats" transform="translate(-12.53 -24.965)">
    <g id="Group_996" data-name="Group 996" transform="translate(12.53 24.965)">
      <path id="Path_56855" data-name="Path 56855" d="M71.647,112.813a.991.991,0,0,0,1.391-.26l3.781-5.525,4,3.859a.989.989,0,0,0,.793.274,1.017,1.017,0,0,0,.725-.421l6.636-9.516.24,3.184a1,1,0,0,0,1.993-.152l-.421-5.6a1,1,0,0,0-1.073-.921l-5.6.421a1,1,0,0,0,.152,1.993l3.184-.24-6.083,8.718-4.011-3.869a.978.978,0,0,0-.793-.274.994.994,0,0,0-.725.431l-4.452,6.5A1,1,0,0,0,71.647,112.813Z" transform="translate(-71.212 -97.735)" fill="#1e1e1e"/>
    </g>
  </g>
</svg>
