<svg xmlns="http://www.w3.org/2000/svg" width="14.625" height="18" viewBox="0 0 14.625 18">
  <g id="contact-book" transform="translate(-48)">
    <g id="Group_1007" data-name="Group 1007" transform="translate(48)">
      <path id="Path_56862" data-name="Path 56862" d="M62.063,2.25H60.375V.563A.563.563,0,0,0,59.813,0H49.688A1.69,1.69,0,0,0,48,1.688V15.75A2.252,2.252,0,0,0,50.25,18H62.063a.563.563,0,0,0,.563-.562V2.813A.563.563,0,0,0,62.063,2.25ZM59.25,14.063a.563.563,0,0,1-.562.563h-6.75a.563.563,0,0,1-.562-.562V12.938a2.816,2.816,0,0,1,2.813-2.812h2.25a2.815,2.815,0,0,1,2.813,2.813ZM53.063,6.75A2.25,2.25,0,1,1,55.313,9,2.252,2.252,0,0,1,53.063,6.75Zm6.188-4.5H49.688a.563.563,0,0,1,0-1.125H59.25Z" transform="translate(-48)" fill="#1e1e1e"/>
    </g>
  </g>
</svg>
