<svg id="settings" xmlns="http://www.w3.org/2000/svg" width="18" height="18" viewBox="0 0 18 18">
  <g id="Group_1008" data-name="Group 1008">
    <path id="Path_56863" data-name="Path 56863" d="M17.6,7.474l-2.106-.517a6.792,6.792,0,0,0-.443-1.076l1.076-1.793a.525.525,0,0,0-.074-.643l-1.5-1.5a.525.525,0,0,0-.643-.074L12.118,2.95a6.792,6.792,0,0,0-1.076-.443L10.536.4A.541.541,0,0,0,10.02,0H7.91a.541.541,0,0,0-.517.4L6.887,2.507a6.792,6.792,0,0,0-1.076.443L4.018,1.874a.525.525,0,0,0-.643.074l-1.5,1.5a.525.525,0,0,0-.074.643L2.879,5.882a6.792,6.792,0,0,0-.443,1.076L.4,7.474A.52.52,0,0,0,0,7.98V10.09a.52.52,0,0,0,.4.506l2.036.517a6.792,6.792,0,0,0,.443,1.076L1.8,13.982a.525.525,0,0,0,.074.643l1.5,1.5a.525.525,0,0,0,.643.074l1.793-1.076a6.792,6.792,0,0,0,1.076.443L7.393,17.6a.541.541,0,0,0,.517.4H10.02a.541.541,0,0,0,.517-.4l.506-2.036a6.792,6.792,0,0,0,1.076-.443L13.911,16.2a.525.525,0,0,0,.643-.074l1.5-1.5a.525.525,0,0,0,.074-.643L15.05,12.189a6.792,6.792,0,0,0,.443-1.076L17.6,10.6a.52.52,0,0,0,.4-.506V7.98A.52.52,0,0,0,17.6,7.474Zm-8.634,4.2A2.637,2.637,0,1,1,11.6,9.035,2.638,2.638,0,0,1,8.965,11.672Z" fill="#1e1e1e"/>
  </g>
</svg>
