<svg id="language" xmlns="http://www.w3.org/2000/svg" width="18" height="18" viewBox="0 0 18 18">
  <g id="Group_998" data-name="Group 998" transform="translate(4.229 4.816)">
    <g id="Group_997" data-name="Group 997">
      <path id="Path_56857" data-name="Path 56857" d="M120.94,137h-.226l-.422,2.109h1.069Z" transform="translate(-120.293 -137)" fill="#1e1e1e"/>
    </g>
  </g>
  <g id="Group_1000" data-name="Group 1000" transform="translate(13.408 9.035)">
    <g id="Group_999" data-name="Group 999">
      <path id="Path_56858" data-name="Path 56858" d="M381.374,257a5.511,5.511,0,0,0,.866,1.528,5.567,5.567,0,0,0,.9-1.528Z" transform="translate(-381.374 -257)" fill="#1e1e1e"/>
    </g>
  </g>
  <g id="Group_1002" data-name="Group 1002" transform="translate(8.531 3.199)">
    <g id="Group_1001" data-name="Group 1001">
      <path id="Path_56859" data-name="Path 56859" d="M250.55,91H244l1.366,10.957a1.637,1.637,0,0,1-.391,1.2l-2.312,2.643h7.887a1.584,1.584,0,0,0,1.582-1.582v-11.6A1.614,1.614,0,0,0,250.55,91Zm0,5.836h-.141a6.691,6.691,0,0,1-1.27,2.31c.387.354.8.645,1.213.97a.527.527,0,0,1-.659.823c-.448-.353-.868-.649-1.288-1.034-.42.385-.8.681-1.252,1.034a.527.527,0,0,1-.659-.823c.412-.325.791-.616,1.178-.97a6.656,6.656,0,0,1-1.235-2.31H246.3a.527.527,0,0,1,0-1.055h1.582v-.527a.527.527,0,0,1,1.055,0v.527h1.617a.527.527,0,1,1,0,1.055Z" transform="translate(-242.663 -91)" fill="#1e1e1e"/>
    </g>
  </g>
  <g id="Group_1004" data-name="Group 1004">
    <g id="Group_1003" data-name="Group 1003">
      <path id="Path_56860" data-name="Path 56860" d="M8.584,1.386A1.584,1.584,0,0,0,7.014,0H1.582A1.584,1.584,0,0,0,0,1.582V13.254a1.584,1.584,0,0,0,1.582,1.582H9.9c.154-.176.283-.286.288-.515C10.188,14.263,8.591,1.443,8.584,1.386ZM6.467,10.08a.527.527,0,0,1-.621-.414L5.509,7.98H4.018L3.681,9.666a.527.527,0,1,1-1.034-.207L3.7,4.186a.528.528,0,0,1,.517-.424h1.09a.528.528,0,0,1,.517.424L6.88,9.459A.527.527,0,0,1,6.467,10.08Z" fill="#1e1e1e"/>
    </g>
  </g>
  <g id="Group_1006" data-name="Group 1006" transform="translate(6.162 15.891)">
    <g id="Group_1005" data-name="Group 1005">
      <path id="Path_56861" data-name="Path 56861" d="M175.261,452l.09.724a1.6,1.6,0,0,0,.912,1.225l1.77-1.949Z" transform="translate(-175.261 -452)" fill="#1e1e1e"/>
    </g>
  </g>
</svg>
