<svg xmlns="http://www.w3.org/2000/svg" width="18.938" height="18" viewBox="0 0 18.938 18">
  <g id="home" transform="translate(0 -12.676)">
    <g id="Group_977" data-name="Group 977" transform="translate(0 12.675)">
      <g id="Group_976" data-name="Group 976" transform="translate(0 0)">
        <path id="Path_56847" data-name="Path 56847" d="M18.62,20.673l-8.5-7.742a.967.967,0,0,0-1.308,0l-8.5,7.742a.971.971,0,0,0,.654,1.689H2.329v7.757a.557.557,0,0,0,.557.557H7.543a.557.557,0,0,0,.557-.557v-4.71h2.737v4.71a.557.557,0,0,0,.557.557h4.657a.557.557,0,0,0,.557-.557V22.361h1.357a.971.971,0,0,0,.654-1.689Z" transform="translate(0 -12.675)" fill="#1e1e1e"/>
      </g>
    </g>
    <g id="Group_979" data-name="Group 979" transform="translate(12.723 13.787)">
      <g id="Group_978" data-name="Group 978">
        <path id="Path_56848" data-name="Path 56848" d="M347.713,42.73h-3.74l4.3,3.907v-3.35A.557.557,0,0,0,347.713,42.73Z" transform="translate(-343.973 -42.73)" fill="#1e1e1e"/>
      </g>
    </g>
  </g>
</svg>
