<svg xmlns="http://www.w3.org/2000/svg" width="19.747" height="25" viewBox="0 0 19.747 25">
  <g id="notification" transform="translate(-3.865 -1.764)">
    <path id="Path_56875" data-name="Path 56875" d="M7.138,4.957a8.1,8.1,0,0,1,6.6-3.193,8.1,8.1,0,0,1,6.6,3.193,9.845,9.845,0,0,1,2.034,5.816c0,.518-.016.9-.028,1.193,0,.06,0,.116-.007.168a3.039,3.039,0,0,0,.015.614,11.483,11.483,0,0,0,.922,2.287c.007.015.013.031.02.047a3.848,3.848,0,0,1-.207,3.482,6.014,6.014,0,0,1-2.559,2.182,16.373,16.373,0,0,1-13.583,0,6.013,6.013,0,0,1-2.559-2.182,3.848,3.848,0,0,1-.206-3.483q.009-.023.019-.046a11.479,11.479,0,0,0,.922-2.287,3.038,3.038,0,0,0,.015-.614c0-.052,0-.108-.007-.168-.012-.292-.028-.676-.028-1.193A9.845,9.845,0,0,1,7.138,4.957ZM8.577,6.074a8.027,8.027,0,0,0-1.652,4.7c0,.477.014.822.026,1.112,0,.063.005.123.007.181a4.753,4.753,0,0,1-.037.972,12.015,12.015,0,0,1-1.039,2.7l-.012.027a2.028,2.028,0,0,0,.084,1.872,4.24,4.24,0,0,0,1.8,1.481,14.566,14.566,0,0,0,11.957,0,4.241,4.241,0,0,0,1.805-1.481,2.028,2.028,0,0,0,.085-1.872l-.012-.027a12.011,12.011,0,0,1-1.039-2.7,4.748,4.748,0,0,1-.037-.972c0-.058,0-.119.007-.181.012-.29.026-.635.026-1.112a8.027,8.027,0,0,0-1.652-4.7,6.277,6.277,0,0,0-5.161-2.488A6.276,6.276,0,0,0,8.577,6.074Z" transform="translate(0 0)" fill-rule="evenodd"/>
    <path id="Path_56876" data-name="Path 56876" d="M9.24,19.994a.911.911,0,0,1,1.286.073,2.725,2.725,0,0,0,4.252,0,.911.911,0,0,1,1.357,1.215,4.541,4.541,0,0,1-6.968,0A.911.911,0,0,1,9.24,19.994Z" transform="translate(1.087 3.856)" fill-rule="evenodd"/>
  </g>
</svg>
