<svg xmlns="http://www.w3.org/2000/svg" width="100" height="100" viewBox="0 0 100 100">
  <g id="Group_4434" data-name="Group 4434" transform="translate(-208 -110)">
    <g id="Rectangle_1860" data-name="Rectangle 1860" transform="translate(208 110)" fill="#fff" stroke="#ccc" stroke-width="1" stroke-dasharray="4 4">
      <rect width="100" height="100" rx="15" stroke="none"/>
      <rect x="0.5" y="0.5" width="99" height="99" rx="14.5" fill="none"/>
    </g>
    <g id="photo" transform="translate(241.333 143.813)">
      <g id="Group_4143" data-name="Group 4143" transform="translate(0 0)">
        <g id="Group_4142" data-name="Group 4142" transform="translate(0 0)">
          <circle id="Ellipse_353" data-name="Ellipse 353" cx="2.375" cy="2.375" r="2.375" transform="translate(10.655 7.554)" fill="#c8c8c8" stroke="#fff" stroke-width="0.5"/>
          <path id="Path_59189" data-name="Path 59189" d="M32.526,42.671a7.314,7.314,0,0,0-4.09-1.946V28.651a4.749,4.749,0,0,0-1.352-3.3A4.609,4.609,0,0,0,23.784,24H4.651a4.749,4.749,0,0,0-3.3,1.352A4.609,4.609,0,0,0,0,28.651V48.345a4.749,4.749,0,0,0,1.352,3.3A4.609,4.609,0,0,0,4.651,53H23.157a6.979,6.979,0,0,0,9.368-10.325ZM1.748,28.651a2.761,2.761,0,0,1,.858-2.012,2.894,2.894,0,0,1,2.045-.858H23.784a2.929,2.929,0,0,1,2.9,2.9V38.976L21.8,34.094a.886.886,0,0,0-1.254,0l-7.356,7.389L8.214,36.469a.886.886,0,0,0-1.254,0L1.748,41.747Zm2.87,22.662v-.066a2.9,2.9,0,0,1-2.045-.858,3.011,3.011,0,0,1-.825-2.045v-4.09l5.839-5.872,4.981,4.981a.917.917,0,0,0,1.254,0l7.356-7.389,4.816,4.849-.3.1a3.063,3.063,0,0,0-.429.132c-.132.033-.264.1-.4.132a.988.988,0,0,0-.264.132,3.066,3.066,0,0,0-.33.165l-.495.3c-.1.066-.165.1-.264.165-.066.033-.1.066-.165.1a3.98,3.98,0,0,0-.792.693,6.978,6.978,0,0,0-2.045,4.948,7.252,7.252,0,0,0,.165,1.451c.033.132.066.231.1.363.1.33.2.66.33.99v.033a6.052,6.052,0,0,0,.429.792Zm26.621,0a5.218,5.218,0,0,1-7.29.066c-.132-.132-.264-.3-.4-.429-.1-.1-.2-.231-.3-.33a3.132,3.132,0,0,1-.33-.561c-.066-.132-.132-.231-.2-.363a2.786,2.786,0,0,1-.165-.561c-.033-.132-.1-.3-.132-.429a5.46,5.46,0,0,1-.1-1.056,5.3,5.3,0,0,1,1.517-3.695,5.1,5.1,0,0,1,3.695-1.517,5.3,5.3,0,0,1,3.695,1.517,5.156,5.156,0,0,1,1.517,3.695A5.276,5.276,0,0,1,31.239,51.314Z" transform="translate(0 -24)" fill="#c8c8c8" stroke="#fff" stroke-width="0.5"/>
          <path id="Path_59190" data-name="Path 59190" d="M302.146,264.664a1.15,1.15,0,0,0-.3-.2.964.964,0,0,0-.3-.066h-.066a.964.964,0,0,0-.3.066.778.778,0,0,0-.3.2l-2.045,2.045a.886.886,0,1,0,1.254,1.254l.528-.528v3.629a.891.891,0,0,0,1.781,0v-3.629l.528.528a.886.886,0,1,0,1.254-1.254Z" transform="translate(-273.975 -244.575)" fill="#c8c8c8" stroke="#fff" stroke-width="0.5"/>
        </g>
      </g>
    </g>
  </g>
</svg>
