<svg xmlns="http://www.w3.org/2000/svg" width="18" height="18" viewBox="0 0 18 18">
  <g id="review" transform="translate(0 0)">
    <path id="Path_74326" data-name="Path 74326" d="M16.06,0H1.939A1.942,1.942,0,0,0,0,1.939V13.8a1.942,1.942,0,0,0,1.939,1.939H6.522l2.1,2.1a.527.527,0,0,0,.746,0l2.1-2.1h4.583A1.942,1.942,0,0,0,18,13.8V1.939A1.942,1.942,0,0,0,16.06,0Zm.885,13.8a.886.886,0,0,1-.885.885h-4.8a.527.527,0,0,0-.373.154L9,16.727,7.114,14.84a.527.527,0,0,0-.373-.154h-4.8a.886.886,0,0,1-.885-.885V1.939a.886.886,0,0,1,.885-.885H16.061a.886.886,0,0,1,.885.885Z"/>
    <path id="Path_74327" data-name="Path 74327" d="M123.809,83.575l-2.8-.407-1.254-2.54a.527.527,0,0,0-.946,0l-1.254,2.54-2.8.407a.527.527,0,0,0-.292.9l2.029,1.977-.479,2.792a.527.527,0,0,0,.765.556l2.507-1.318,2.508,1.318a.527.527,0,0,0,.245.061h0a.528.528,0,0,0,.513-.645l-.474-2.763,2.029-1.977a.527.527,0,0,0-.292-.9Zm-2.671,2.315a.527.527,0,0,0-.152.467l.345,2.012-1.807-.95a.527.527,0,0,0-.491,0l-1.807.95.345-2.012a.527.527,0,0,0-.152-.467l-1.462-1.425,2.02-.294a.527.527,0,0,0,.4-.288l.9-1.831.9,1.831a.527.527,0,0,0,.4.288l2.02.294Z" transform="translate(-110.279 -77.509)"/>
  </g>
</svg>
