<svg xmlns="http://www.w3.org/2000/svg" width="20.52" height="20" viewBox="0 0 20.52 20">
  <g id="send" transform="translate(0 -6.197)">
    <g id="Group_6606" data-name="Group 6606" transform="translate(0 6.197)">
      <path id="Path_74302" data-name="Path 74302" d="M20.3,15.259a2.15,2.15,0,0,0-1-1L3.087,6.412A2.15,2.15,0,0,0,.154,9.146l2.82,7.05L.154,23.246a2.15,2.15,0,0,0,2.933,2.735l16.22-7.851A2.15,2.15,0,0,0,20.3,15.259ZM2.463,24.69a.717.717,0,0,1-.977-.912l2.746-6.866h14.3Zm1.769-9.21L1.486,8.614A.716.716,0,0,1,2.463,7.7l16.072,7.775Z" transform="translate(0 -6.197)" fill="#757575"/>
    </g>
  </g>
</svg>
