<svg xmlns="http://www.w3.org/2000/svg" width="60.08" height="25" viewBox="0 0 60.08 25">
  <g id="stripe" transform="translate(0 -149.482)">
    <path id="Path_74303" data-name="Path 74303" d="M418.745,202.069c0-4.272-2.069-7.643-6.025-7.643-3.972,0-6.375,3.371-6.375,7.61,0,5.023,2.837,7.56,6.909,7.56a9.3,9.3,0,0,0,4.623-1.085v-3.338a8.862,8.862,0,0,1-4.089.918c-1.619,0-3.054-.567-3.238-2.537h8.161C418.711,203.338,418.745,202.47,418.745,202.069Zm-8.244-1.585c0-1.886,1.152-2.67,2.2-2.67,1.018,0,2.1.784,2.1,2.67Z" transform="translate(-358.665 -39.67)" fill="#635bff" fill-rule="evenodd"/>
    <path id="Path_74304" data-name="Path 74304" d="M297.589,194.426a4.715,4.715,0,0,0-3.271,1.3l-.217-1.035h-3.672v19.459l4.172-.885.017-4.723a4.7,4.7,0,0,0,2.954,1.051c2.987,0,5.708-2.4,5.708-7.694C303.263,197.063,300.509,194.426,297.589,194.426Zm-1,11.5a2.5,2.5,0,0,1-1.969-.784l-.017-6.192a2.484,2.484,0,0,1,1.986-.818c1.519,0,2.57,1.7,2.57,3.888C299.157,204.256,298.123,205.925,296.587,205.925Z" transform="translate(-256.35 -39.67)" fill="#635bff" fill-rule="evenodd"/>
    <path id="Path_74305" data-name="Path 74305" d="M241.5,153.771l4.189-.9v-3.388l-4.189.884Z" transform="translate(-213.165)" fill="#635bff" fill-rule="evenodd"/>
    <rect id="Rectangle_3158" data-name="Rectangle 3158" width="4.189" height="14.603" transform="translate(28.338 155.039)" fill="#635bff"/>
    <path id="Path_74306" data-name="Path 74306" d="M174.119,196.781l-.267-1.235h-3.6v14.6h4.172v-9.9a2.943,2.943,0,0,1,3.171-.868v-3.838A2.833,2.833,0,0,0,174.119,196.781Z" transform="translate(-150.27 -40.507)" fill="#635bff" fill-rule="evenodd"/>
    <path id="Path_74307" data-name="Path 74307" d="M101.373,165.98l-4.072.868-.017,13.368a4.193,4.193,0,0,0,4.322,4.289,6.446,6.446,0,0,0,2.921-.551v-3.388c-.534.217-3.171.985-3.171-1.485v-5.925h3.171V169.6h-3.171Z" transform="translate(-85.869 -14.562)" fill="#635bff" fill-rule="evenodd"/>
    <path id="Path_74308" data-name="Path 74308" d="M4.222,198.949c0-.651.534-.9,1.419-.9a9.308,9.308,0,0,1,4.139,1.068v-3.922a11.007,11.007,0,0,0-4.139-.768c-3.388,0-5.641,1.769-5.641,4.723,0,4.606,6.342,3.872,6.342,5.858,0,.768-.668,1.018-1.6,1.018A10.388,10.388,0,0,1,.184,204.69v3.972a11.569,11.569,0,0,0,4.556.951c3.471,0,5.858-1.719,5.858-4.706C10.581,199.933,4.222,200.818,4.222,198.949Z" transform="translate(0 -39.67)" fill="#635bff" fill-rule="evenodd"/>
  </g>
</svg>
